<mxfile host="app.diagrams.net" agent="Mozilla/5.0 (Macintosh; Intel Mac OS X 10_15_7) AppleWebKit/605.1.15 (KHTML, like Gecko) Version/17.1 Safari/605.1.15" version="24.7.6">
  <diagram name="第 1 页" id="J6Jc9HVpwCQTytrT1AX0">
    <mxGraphModel dx="954" dy="592" grid="1" gridSize="10" guides="1" tooltips="1" connect="1" arrows="1" fold="1" page="1" pageScale="1" pageWidth="850" pageHeight="1100" math="0" shadow="0">
      <root>
        <mxCell id="0" />
        <mxCell id="1" parent="0" />
        <mxCell id="3VIQuk2y1fccYM4NqY5o-7" value="" style="edgeStyle=orthogonalEdgeStyle;rounded=0;orthogonalLoop=1;jettySize=auto;html=1;fontSize=15;" edge="1" parent="1" source="3VIQuk2y1fccYM4NqY5o-2" target="3VIQuk2y1fccYM4NqY5o-6">
          <mxGeometry relative="1" as="geometry" />
        </mxCell>
        <mxCell id="3VIQuk2y1fccYM4NqY5o-2" value="业务逻辑" style="rounded=0;whiteSpace=wrap;html=1;fontSize=15;" vertex="1" parent="1">
          <mxGeometry x="160" y="190" width="150" height="60" as="geometry" />
        </mxCell>
        <mxCell id="3VIQuk2y1fccYM4NqY5o-9" value="" style="edgeStyle=orthogonalEdgeStyle;rounded=0;orthogonalLoop=1;jettySize=auto;html=1;fontSize=15;" edge="1" parent="1" source="3VIQuk2y1fccYM4NqY5o-6" target="3VIQuk2y1fccYM4NqY5o-8">
          <mxGeometry relative="1" as="geometry" />
        </mxCell>
        <mxCell id="3VIQuk2y1fccYM4NqY5o-6" value="FFmpeg拼参数逻辑&lt;div&gt;业务代码复杂&lt;/div&gt;" style="whiteSpace=wrap;html=1;rounded=0;fontSize=15;fillColor=#f8cecc;strokeColor=#b85450;" vertex="1" parent="1">
          <mxGeometry x="160" y="280" width="150" height="60" as="geometry" />
        </mxCell>
        <mxCell id="3VIQuk2y1fccYM4NqY5o-8" value="FFmpeg视频能力" style="whiteSpace=wrap;html=1;rounded=0;fontSize=15;" vertex="1" parent="1">
          <mxGeometry x="160" y="370" width="150" height="60" as="geometry" />
        </mxCell>
        <mxCell id="3VIQuk2y1fccYM4NqY5o-12" value="" style="edgeStyle=orthogonalEdgeStyle;rounded=0;orthogonalLoop=1;jettySize=auto;html=1;fontSize=15;" edge="1" parent="1" source="3VIQuk2y1fccYM4NqY5o-13" target="3VIQuk2y1fccYM4NqY5o-15">
          <mxGeometry relative="1" as="geometry" />
        </mxCell>
        <mxCell id="3VIQuk2y1fccYM4NqY5o-13" value="业务逻辑" style="rounded=0;whiteSpace=wrap;html=1;fontSize=15;" vertex="1" parent="1">
          <mxGeometry x="475" y="190" width="150" height="60" as="geometry" />
        </mxCell>
        <mxCell id="3VIQuk2y1fccYM4NqY5o-14" value="" style="edgeStyle=orthogonalEdgeStyle;rounded=0;orthogonalLoop=1;jettySize=auto;html=1;fontSize=15;" edge="1" parent="1" source="3VIQuk2y1fccYM4NqY5o-15" target="3VIQuk2y1fccYM4NqY5o-16">
          <mxGeometry relative="1" as="geometry" />
        </mxCell>
        <mxCell id="3VIQuk2y1fccYM4NqY5o-15" value="合成场景JSON" style="whiteSpace=wrap;html=1;rounded=0;fontSize=15;fillColor=#d5e8d4;strokeColor=#82b366;" vertex="1" parent="1">
          <mxGeometry x="475" y="280" width="150" height="60" as="geometry" />
        </mxCell>
        <mxCell id="3VIQuk2y1fccYM4NqY5o-18" value="" style="edgeStyle=orthogonalEdgeStyle;rounded=0;orthogonalLoop=1;jettySize=auto;html=1;fontSize=15;" edge="1" parent="1" source="3VIQuk2y1fccYM4NqY5o-16" target="3VIQuk2y1fccYM4NqY5o-17">
          <mxGeometry relative="1" as="geometry" />
        </mxCell>
        <mxCell id="3VIQuk2y1fccYM4NqY5o-19" value="" style="edgeStyle=orthogonalEdgeStyle;rounded=0;orthogonalLoop=1;jettySize=auto;html=1;fontSize=15;" edge="1" parent="1" source="3VIQuk2y1fccYM4NqY5o-16" target="3VIQuk2y1fccYM4NqY5o-17">
          <mxGeometry relative="1" as="geometry" />
        </mxCell>
        <mxCell id="3VIQuk2y1fccYM4NqY5o-24" value="" style="edgeStyle=orthogonalEdgeStyle;rounded=0;orthogonalLoop=1;jettySize=auto;html=1;fontSize=15;" edge="1" parent="1" source="3VIQuk2y1fccYM4NqY5o-16" target="3VIQuk2y1fccYM4NqY5o-23">
          <mxGeometry relative="1" as="geometry" />
        </mxCell>
        <mxCell id="3VIQuk2y1fccYM4NqY5o-32" value="" style="edgeStyle=orthogonalEdgeStyle;rounded=0;orthogonalLoop=1;jettySize=auto;html=1;" edge="1" parent="1" source="3VIQuk2y1fccYM4NqY5o-16" target="3VIQuk2y1fccYM4NqY5o-23">
          <mxGeometry relative="1" as="geometry" />
        </mxCell>
        <mxCell id="3VIQuk2y1fccYM4NqY5o-16" value="翻译和执行SDK" style="whiteSpace=wrap;html=1;rounded=0;fontSize=15;fillColor=#d5e8d4;strokeColor=#82b366;" vertex="1" parent="1">
          <mxGeometry x="475" y="370" width="150" height="60" as="geometry" />
        </mxCell>
        <mxCell id="3VIQuk2y1fccYM4NqY5o-17" value="FFmpeg&lt;div&gt;高兼容&lt;/div&gt;" style="whiteSpace=wrap;html=1;rounded=0;fontSize=15;fillColor=#dae8fc;strokeColor=#6c8ebf;" vertex="1" parent="1">
          <mxGeometry x="380" y="510" width="150" height="60" as="geometry" />
        </mxCell>
        <mxCell id="3VIQuk2y1fccYM4NqY5o-23" value="WebCodecs&lt;div&gt;高性能&lt;/div&gt;" style="whiteSpace=wrap;html=1;rounded=0;fontSize=15;fillColor=#dae8fc;strokeColor=#6c8ebf;" vertex="1" parent="1">
          <mxGeometry x="580" y="510" width="150" height="60" as="geometry" />
        </mxCell>
        <mxCell id="3VIQuk2y1fccYM4NqY5o-29" value="旧" style="text;html=1;align=center;verticalAlign=middle;whiteSpace=wrap;rounded=0;fontSize=20;" vertex="1" parent="1">
          <mxGeometry x="205" y="150" width="60" height="30" as="geometry" />
        </mxCell>
        <mxCell id="3VIQuk2y1fccYM4NqY5o-30" value="新" style="text;html=1;align=center;verticalAlign=middle;whiteSpace=wrap;rounded=0;fontSize=20;" vertex="1" parent="1">
          <mxGeometry x="520" y="150" width="60" height="30" as="geometry" />
        </mxCell>
        <mxCell id="3VIQuk2y1fccYM4NqY5o-33" value="接入简单&lt;div&gt;可自动切换能力&lt;/div&gt;" style="text;html=1;align=center;verticalAlign=middle;whiteSpace=wrap;rounded=0;fontSize=15;" vertex="1" parent="1">
          <mxGeometry x="425" y="434" width="115" height="30" as="geometry" />
        </mxCell>
      </root>
    </mxGraphModel>
  </diagram>
</mxfile>
